<?xml version="1.0" encoding="utf-8" standalone="no"?>
<!DOCTYPE svg PUBLIC "-//W3C//DTD SVG 1.1//EN"
  "http://www.w3.org/Graphics/SVG/1.1/DTD/svg11.dtd">
<svg height="345.6pt" version="1.1" viewBox="0 0 460.8 345.6" width="460.8pt" xmlns="http://www.w3.org/2000/svg" xmlns:xlink="http://www.w3.org/1999/xlink">
 <metadata>
  <rdf:RDF xmlns:cc="http://creativecommons.org/ns#" xmlns:dc="http://purl.org/dc/elements/1.1/" xmlns:rdf="http://www.w3.org/1999/02/22-rdf-syntax-ns#">
   <cc:Work>
    <dc:type rdf:resource="http://purl.org/dc/dcmitype/StillImage"/>
    <dc:date>2022-05-05T17:16:43.712460</dc:date>
    <dc:format>image/svg+xml</dc:format>
    <dc:creator>
     <cc:Agent>
      <dc:title>Matplotlib v3.4.3, https://matplotlib.org/</dc:title>
     </cc:Agent>
    </dc:creator>
   </cc:Work>
  </rdf:RDF>
 </metadata>
 <defs>
  <style type="text/css">*{stroke-linecap:butt;stroke-linejoin:round;}</style>
 </defs>
 <g id="figure_1">
  <g id="patch_1">
   <path d="M 0 345.6 
L 460.8 345.6 
L 460.8 0 
L 0 0 
z
" style="fill:#ffffff;"/>
  </g>
  <g id="axes_1">
   <g id="patch_2">
    <path d="M 57.6 307.584 
L 414.72 307.584 
L 414.72 41.472 
L 57.6 41.472 
z
" style="fill:#ffffff;"/>
   </g>
   <g id="PathCollection_1">
    <defs>
     <path d="M 0 3 
C 0.795609 3 1.55874 2.683901 2.12132 2.12132 
C 2.683901 1.55874 3 0.795609 3 0 
C 3 -0.795609 2.683901 -1.55874 2.12132 -2.12132 
C 1.55874 -2.683901 0.795609 -3 0 -3 
C -0.795609 -3 -1.55874 -2.683901 -2.12132 -2.12132 
C -2.683901 -1.55874 -3 -0.795609 -3 0 
C -3 0.795609 -2.683901 1.55874 -2.12132 2.12132 
C -1.55874 2.683901 -0.795609 3 0 3 
z
" id="me7c15576f9" style="stroke:#ff0000;"/>
    </defs>
    <g clip-path="url(#p9f0e6c0924)">
     <use style="fill:#ff0000;stroke:#ff0000;" x="414.72" xlink:href="#me7c15576f9" y="65.664"/>
    </g>
   </g>
   <g id="matplotlib.axis_1">
    <g id="xtick_1">
     <g id="line2d_1">
      <path clip-path="url(#p9f0e6c0924)" d="M 57.6 307.584 
L 57.6 41.472 
" style="fill:none;stroke:#b0b0b0;stroke-linecap:square;stroke-width:0.8;"/>
     </g>
     <g id="line2d_2">
      <defs>
       <path d="M 0 0 
L 0 3.5 
" id="m35e91ea32a" style="stroke:#000000;stroke-width:0.8;"/>
      </defs>
      <g>
       <use style="stroke:#000000;stroke-width:0.8;" x="57.6" xlink:href="#m35e91ea32a" y="307.584"/>
      </g>
     </g>
     <g id="text_1">
      <!-- 0.000 -->
      <g transform="translate(43.285938 322.182437)scale(0.1 -0.1)">
       <defs>
        <path d="M 2034 4250 
Q 1547 4250 1301 3770 
Q 1056 3291 1056 2328 
Q 1056 1369 1301 889 
Q 1547 409 2034 409 
Q 2525 409 2770 889 
Q 3016 1369 3016 2328 
Q 3016 3291 2770 3770 
Q 2525 4250 2034 4250 
z
M 2034 4750 
Q 2819 4750 3233 4129 
Q 3647 3509 3647 2328 
Q 3647 1150 3233 529 
Q 2819 -91 2034 -91 
Q 1250 -91 836 529 
Q 422 1150 422 2328 
Q 422 3509 836 4129 
Q 1250 4750 2034 4750 
z
" id="DejaVuSans-30" transform="scale(0.015625)"/>
        <path d="M 684 794 
L 1344 794 
L 1344 0 
L 684 0 
L 684 794 
z
" id="DejaVuSans-2e" transform="scale(0.015625)"/>
       </defs>
       <use xlink:href="#DejaVuSans-30"/>
       <use x="63.623047" xlink:href="#DejaVuSans-2e"/>
       <use x="95.410156" xlink:href="#DejaVuSans-30"/>
       <use x="159.033203" xlink:href="#DejaVuSans-30"/>
       <use x="222.65625" xlink:href="#DejaVuSans-30"/>
      </g>
     </g>
    </g>
    <g id="xtick_2">
     <g id="line2d_3">
      <path clip-path="url(#p9f0e6c0924)" d="M 122.530909 307.584 
L 122.530909 41.472 
" style="fill:none;stroke:#b0b0b0;stroke-linecap:square;stroke-width:0.8;"/>
     </g>
     <g id="line2d_4">
      <g>
       <use style="stroke:#000000;stroke-width:0.8;" x="122.530909" xlink:href="#m35e91ea32a" y="307.584"/>
      </g>
     </g>
     <g id="text_2">
      <!-- 0.002 -->
      <g transform="translate(108.216847 322.182437)scale(0.1 -0.1)">
       <defs>
        <path d="M 1228 531 
L 3431 531 
L 3431 0 
L 469 0 
L 469 531 
Q 828 903 1448 1529 
Q 2069 2156 2228 2338 
Q 2531 2678 2651 2914 
Q 2772 3150 2772 3378 
Q 2772 3750 2511 3984 
Q 2250 4219 1831 4219 
Q 1534 4219 1204 4116 
Q 875 4013 500 3803 
L 500 4441 
Q 881 4594 1212 4672 
Q 1544 4750 1819 4750 
Q 2544 4750 2975 4387 
Q 3406 4025 3406 3419 
Q 3406 3131 3298 2873 
Q 3191 2616 2906 2266 
Q 2828 2175 2409 1742 
Q 1991 1309 1228 531 
z
" id="DejaVuSans-32" transform="scale(0.015625)"/>
       </defs>
       <use xlink:href="#DejaVuSans-30"/>
       <use x="63.623047" xlink:href="#DejaVuSans-2e"/>
       <use x="95.410156" xlink:href="#DejaVuSans-30"/>
       <use x="159.033203" xlink:href="#DejaVuSans-30"/>
       <use x="222.65625" xlink:href="#DejaVuSans-32"/>
      </g>
     </g>
    </g>
    <g id="xtick_3">
     <g id="line2d_5">
      <path clip-path="url(#p9f0e6c0924)" d="M 187.461818 307.584 
L 187.461818 41.472 
" style="fill:none;stroke:#b0b0b0;stroke-linecap:square;stroke-width:0.8;"/>
     </g>
     <g id="line2d_6">
      <g>
       <use style="stroke:#000000;stroke-width:0.8;" x="187.461818" xlink:href="#m35e91ea32a" y="307.584"/>
      </g>
     </g>
     <g id="text_3">
      <!-- 0.004 -->
      <g transform="translate(173.147756 322.182437)scale(0.1 -0.1)">
       <defs>
        <path d="M 2419 4116 
L 825 1625 
L 2419 1625 
L 2419 4116 
z
M 2253 4666 
L 3047 4666 
L 3047 1625 
L 3713 1625 
L 3713 1100 
L 3047 1100 
L 3047 0 
L 2419 0 
L 2419 1100 
L 313 1100 
L 313 1709 
L 2253 4666 
z
" id="DejaVuSans-34" transform="scale(0.015625)"/>
       </defs>
       <use xlink:href="#DejaVuSans-30"/>
       <use x="63.623047" xlink:href="#DejaVuSans-2e"/>
       <use x="95.410156" xlink:href="#DejaVuSans-30"/>
       <use x="159.033203" xlink:href="#DejaVuSans-30"/>
       <use x="222.65625" xlink:href="#DejaVuSans-34"/>
      </g>
     </g>
    </g>
    <g id="xtick_4">
     <g id="line2d_7">
      <path clip-path="url(#p9f0e6c0924)" d="M 252.392727 307.584 
L 252.392727 41.472 
" style="fill:none;stroke:#b0b0b0;stroke-linecap:square;stroke-width:0.8;"/>
     </g>
     <g id="line2d_8">
      <g>
       <use style="stroke:#000000;stroke-width:0.8;" x="252.392727" xlink:href="#m35e91ea32a" y="307.584"/>
      </g>
     </g>
     <g id="text_4">
      <!-- 0.006 -->
      <g transform="translate(238.078665 322.182437)scale(0.1 -0.1)">
       <defs>
        <path d="M 2113 2584 
Q 1688 2584 1439 2293 
Q 1191 2003 1191 1497 
Q 1191 994 1439 701 
Q 1688 409 2113 409 
Q 2538 409 2786 701 
Q 3034 994 3034 1497 
Q 3034 2003 2786 2293 
Q 2538 2584 2113 2584 
z
M 3366 4563 
L 3366 3988 
Q 3128 4100 2886 4159 
Q 2644 4219 2406 4219 
Q 1781 4219 1451 3797 
Q 1122 3375 1075 2522 
Q 1259 2794 1537 2939 
Q 1816 3084 2150 3084 
Q 2853 3084 3261 2657 
Q 3669 2231 3669 1497 
Q 3669 778 3244 343 
Q 2819 -91 2113 -91 
Q 1303 -91 875 529 
Q 447 1150 447 2328 
Q 447 3434 972 4092 
Q 1497 4750 2381 4750 
Q 2619 4750 2861 4703 
Q 3103 4656 3366 4563 
z
" id="DejaVuSans-36" transform="scale(0.015625)"/>
       </defs>
       <use xlink:href="#DejaVuSans-30"/>
       <use x="63.623047" xlink:href="#DejaVuSans-2e"/>
       <use x="95.410156" xlink:href="#DejaVuSans-30"/>
       <use x="159.033203" xlink:href="#DejaVuSans-30"/>
       <use x="222.65625" xlink:href="#DejaVuSans-36"/>
      </g>
     </g>
    </g>
    <g id="xtick_5">
     <g id="line2d_9">
      <path clip-path="url(#p9f0e6c0924)" d="M 317.323636 307.584 
L 317.323636 41.472 
" style="fill:none;stroke:#b0b0b0;stroke-linecap:square;stroke-width:0.8;"/>
     </g>
     <g id="line2d_10">
      <g>
       <use style="stroke:#000000;stroke-width:0.8;" x="317.323636" xlink:href="#m35e91ea32a" y="307.584"/>
      </g>
     </g>
     <g id="text_5">
      <!-- 0.008 -->
      <g transform="translate(303.009574 322.182437)scale(0.1 -0.1)">
       <defs>
        <path d="M 2034 2216 
Q 1584 2216 1326 1975 
Q 1069 1734 1069 1313 
Q 1069 891 1326 650 
Q 1584 409 2034 409 
Q 2484 409 2743 651 
Q 3003 894 3003 1313 
Q 3003 1734 2745 1975 
Q 2488 2216 2034 2216 
z
M 1403 2484 
Q 997 2584 770 2862 
Q 544 3141 544 3541 
Q 544 4100 942 4425 
Q 1341 4750 2034 4750 
Q 2731 4750 3128 4425 
Q 3525 4100 3525 3541 
Q 3525 3141 3298 2862 
Q 3072 2584 2669 2484 
Q 3125 2378 3379 2068 
Q 3634 1759 3634 1313 
Q 3634 634 3220 271 
Q 2806 -91 2034 -91 
Q 1263 -91 848 271 
Q 434 634 434 1313 
Q 434 1759 690 2068 
Q 947 2378 1403 2484 
z
M 1172 3481 
Q 1172 3119 1398 2916 
Q 1625 2713 2034 2713 
Q 2441 2713 2670 2916 
Q 2900 3119 2900 3481 
Q 2900 3844 2670 4047 
Q 2441 4250 2034 4250 
Q 1625 4250 1398 4047 
Q 1172 3844 1172 3481 
z
" id="DejaVuSans-38" transform="scale(0.015625)"/>
       </defs>
       <use xlink:href="#DejaVuSans-30"/>
       <use x="63.623047" xlink:href="#DejaVuSans-2e"/>
       <use x="95.410156" xlink:href="#DejaVuSans-30"/>
       <use x="159.033203" xlink:href="#DejaVuSans-30"/>
       <use x="222.65625" xlink:href="#DejaVuSans-38"/>
      </g>
     </g>
    </g>
    <g id="xtick_6">
     <g id="line2d_11">
      <path clip-path="url(#p9f0e6c0924)" d="M 382.254545 307.584 
L 382.254545 41.472 
" style="fill:none;stroke:#b0b0b0;stroke-linecap:square;stroke-width:0.8;"/>
     </g>
     <g id="line2d_12">
      <g>
       <use style="stroke:#000000;stroke-width:0.8;" x="382.254545" xlink:href="#m35e91ea32a" y="307.584"/>
      </g>
     </g>
     <g id="text_6">
      <!-- 0.010 -->
      <g transform="translate(367.940483 322.182437)scale(0.1 -0.1)">
       <defs>
        <path d="M 794 531 
L 1825 531 
L 1825 4091 
L 703 3866 
L 703 4441 
L 1819 4666 
L 2450 4666 
L 2450 531 
L 3481 531 
L 3481 0 
L 794 0 
L 794 531 
z
" id="DejaVuSans-31" transform="scale(0.015625)"/>
       </defs>
       <use xlink:href="#DejaVuSans-30"/>
       <use x="63.623047" xlink:href="#DejaVuSans-2e"/>
       <use x="95.410156" xlink:href="#DejaVuSans-30"/>
       <use x="159.033203" xlink:href="#DejaVuSans-31"/>
       <use x="222.65625" xlink:href="#DejaVuSans-30"/>
      </g>
     </g>
    </g>
    <g id="text_7">
     <!-- $Time$, $c$ -->
     <g transform="translate(217.81 335.860562)scale(0.1 -0.1)">
      <defs>
       <path d="M 378 4666 
L 4325 4666 
L 4225 4134 
L 2559 4134 
L 1759 0 
L 1125 0 
L 1925 4134 
L 275 4134 
L 378 4666 
z
" id="DejaVuSans-Oblique-54" transform="scale(0.015625)"/>
       <path d="M 1172 4863 
L 1747 4863 
L 1606 4134 
L 1031 4134 
L 1172 4863 
z
M 909 3500 
L 1484 3500 
L 800 0 
L 225 0 
L 909 3500 
z
" id="DejaVuSans-Oblique-69" transform="scale(0.015625)"/>
       <path d="M 5747 2113 
L 5338 0 
L 4763 0 
L 5166 2094 
Q 5191 2228 5203 2325 
Q 5216 2422 5216 2491 
Q 5216 2772 5059 2928 
Q 4903 3084 4622 3084 
Q 4203 3084 3875 2770 
Q 3547 2456 3450 1953 
L 3066 0 
L 2491 0 
L 2900 2094 
Q 2925 2209 2937 2307 
Q 2950 2406 2950 2484 
Q 2950 2769 2794 2926 
Q 2638 3084 2363 3084 
Q 1938 3084 1609 2770 
Q 1281 2456 1184 1953 
L 800 0 
L 225 0 
L 909 3500 
L 1484 3500 
L 1375 2956 
Q 1609 3263 1923 3423 
Q 2238 3584 2597 3584 
Q 2978 3584 3223 3384 
Q 3469 3184 3519 2828 
Q 3781 3197 4126 3390 
Q 4472 3584 4856 3584 
Q 5306 3584 5551 3325 
Q 5797 3066 5797 2591 
Q 5797 2488 5784 2364 
Q 5772 2241 5747 2113 
z
" id="DejaVuSans-Oblique-6d" transform="scale(0.015625)"/>
       <path d="M 3078 2063 
Q 3088 2113 3092 2166 
Q 3097 2219 3097 2272 
Q 3097 2653 2873 2875 
Q 2650 3097 2266 3097 
Q 1838 3097 1509 2826 
Q 1181 2556 1013 2059 
L 3078 2063 
z
M 3578 1613 
L 903 1613 
Q 884 1494 878 1425 
Q 872 1356 872 1306 
Q 872 872 1139 634 
Q 1406 397 1894 397 
Q 2269 397 2603 481 
Q 2938 566 3225 728 
L 3116 159 
Q 2806 34 2476 -28 
Q 2147 -91 1806 -91 
Q 1078 -91 686 257 
Q 294 606 294 1247 
Q 294 1794 489 2264 
Q 684 2734 1063 3103 
Q 1306 3334 1642 3459 
Q 1978 3584 2356 3584 
Q 2950 3584 3301 3228 
Q 3653 2872 3653 2272 
Q 3653 2128 3634 1964 
Q 3616 1800 3578 1613 
z
" id="DejaVuSans-Oblique-65" transform="scale(0.015625)"/>
       <path d="M 750 794 
L 1409 794 
L 1409 256 
L 897 -744 
L 494 -744 
L 750 256 
L 750 794 
z
" id="DejaVuSans-2c" transform="scale(0.015625)"/>
       <path id="DejaVuSans-20" transform="scale(0.015625)"/>
       <path d="M 3431 3366 
L 3316 2797 
Q 3109 2947 2876 3022 
Q 2644 3097 2394 3097 
Q 2119 3097 1870 3000 
Q 1622 2903 1453 2725 
Q 1184 2453 1037 2087 
Q 891 1722 891 1331 
Q 891 859 1127 628 
Q 1363 397 1844 397 
Q 2081 397 2348 469 
Q 2616 541 2906 684 
L 2797 116 
Q 2547 13 2283 -39 
Q 2019 -91 1741 -91 
Q 1044 -91 669 257 
Q 294 606 294 1253 
Q 294 1797 489 2255 
Q 684 2713 1069 3078 
Q 1331 3328 1684 3456 
Q 2038 3584 2456 3584 
Q 2700 3584 2940 3529 
Q 3181 3475 3431 3366 
z
" id="DejaVuSans-Oblique-63" transform="scale(0.015625)"/>
      </defs>
      <use transform="translate(0 0.015625)" xlink:href="#DejaVuSans-Oblique-54"/>
      <use transform="translate(61.083984 0.015625)" xlink:href="#DejaVuSans-Oblique-69"/>
      <use transform="translate(88.867188 0.015625)" xlink:href="#DejaVuSans-Oblique-6d"/>
      <use transform="translate(186.279297 0.015625)" xlink:href="#DejaVuSans-Oblique-65"/>
      <use transform="translate(247.802734 0.015625)" xlink:href="#DejaVuSans-2c"/>
      <use transform="translate(279.589844 0.015625)" xlink:href="#DejaVuSans-20"/>
      <use transform="translate(311.376953 0.015625)" xlink:href="#DejaVuSans-Oblique-63"/>
     </g>
    </g>
   </g>
   <g id="matplotlib.axis_2">
    <g id="ytick_1">
     <g id="line2d_13">
      <path clip-path="url(#p9f0e6c0924)" d="M 57.6 307.584 
L 414.72 307.584 
" style="fill:none;stroke:#b0b0b0;stroke-linecap:square;stroke-width:0.8;"/>
     </g>
     <g id="line2d_14">
      <defs>
       <path d="M 0 0 
L -3.5 0 
" id="m887751ff6e" style="stroke:#000000;stroke-width:0.8;"/>
      </defs>
      <g>
       <use style="stroke:#000000;stroke-width:0.8;" x="57.6" xlink:href="#m887751ff6e" y="307.584"/>
      </g>
     </g>
     <g id="text_8">
      <!-- 0.0 -->
      <g transform="translate(34.696875 311.383219)scale(0.1 -0.1)">
       <use xlink:href="#DejaVuSans-30"/>
       <use x="63.623047" xlink:href="#DejaVuSans-2e"/>
       <use x="95.410156" xlink:href="#DejaVuSans-30"/>
      </g>
     </g>
    </g>
    <g id="ytick_2">
     <g id="line2d_15">
      <path clip-path="url(#p9f0e6c0924)" d="M 57.6 269.742263 
L 414.72 269.742263 
" style="fill:none;stroke:#b0b0b0;stroke-linecap:square;stroke-width:0.8;"/>
     </g>
     <g id="line2d_16">
      <g>
       <use style="stroke:#000000;stroke-width:0.8;" x="57.6" xlink:href="#m887751ff6e" y="269.742263"/>
      </g>
     </g>
     <g id="text_9">
      <!-- 0.5 -->
      <g transform="translate(34.696875 273.541482)scale(0.1 -0.1)">
       <defs>
        <path d="M 691 4666 
L 3169 4666 
L 3169 4134 
L 1269 4134 
L 1269 2991 
Q 1406 3038 1543 3061 
Q 1681 3084 1819 3084 
Q 2600 3084 3056 2656 
Q 3513 2228 3513 1497 
Q 3513 744 3044 326 
Q 2575 -91 1722 -91 
Q 1428 -91 1123 -41 
Q 819 9 494 109 
L 494 744 
Q 775 591 1075 516 
Q 1375 441 1709 441 
Q 2250 441 2565 725 
Q 2881 1009 2881 1497 
Q 2881 1984 2565 2268 
Q 2250 2553 1709 2553 
Q 1456 2553 1204 2497 
Q 953 2441 691 2322 
L 691 4666 
z
" id="DejaVuSans-35" transform="scale(0.015625)"/>
       </defs>
       <use xlink:href="#DejaVuSans-30"/>
       <use x="63.623047" xlink:href="#DejaVuSans-2e"/>
       <use x="95.410156" xlink:href="#DejaVuSans-35"/>
      </g>
     </g>
    </g>
    <g id="ytick_3">
     <g id="line2d_17">
      <path clip-path="url(#p9f0e6c0924)" d="M 57.6 231.900526 
L 414.72 231.900526 
" style="fill:none;stroke:#b0b0b0;stroke-linecap:square;stroke-width:0.8;"/>
     </g>
     <g id="line2d_18">
      <g>
       <use style="stroke:#000000;stroke-width:0.8;" x="57.6" xlink:href="#m887751ff6e" y="231.900526"/>
      </g>
     </g>
     <g id="text_10">
      <!-- 1.0 -->
      <g transform="translate(34.696875 235.699744)scale(0.1 -0.1)">
       <use xlink:href="#DejaVuSans-31"/>
       <use x="63.623047" xlink:href="#DejaVuSans-2e"/>
       <use x="95.410156" xlink:href="#DejaVuSans-30"/>
      </g>
     </g>
    </g>
    <g id="ytick_4">
     <g id="line2d_19">
      <path clip-path="url(#p9f0e6c0924)" d="M 57.6 194.058788 
L 414.72 194.058788 
" style="fill:none;stroke:#b0b0b0;stroke-linecap:square;stroke-width:0.8;"/>
     </g>
     <g id="line2d_20">
      <g>
       <use style="stroke:#000000;stroke-width:0.8;" x="57.6" xlink:href="#m887751ff6e" y="194.058788"/>
      </g>
     </g>
     <g id="text_11">
      <!-- 1.5 -->
      <g transform="translate(34.696875 197.858007)scale(0.1 -0.1)">
       <use xlink:href="#DejaVuSans-31"/>
       <use x="63.623047" xlink:href="#DejaVuSans-2e"/>
       <use x="95.410156" xlink:href="#DejaVuSans-35"/>
      </g>
     </g>
    </g>
    <g id="ytick_5">
     <g id="line2d_21">
      <path clip-path="url(#p9f0e6c0924)" d="M 57.6 156.217051 
L 414.72 156.217051 
" style="fill:none;stroke:#b0b0b0;stroke-linecap:square;stroke-width:0.8;"/>
     </g>
     <g id="line2d_22">
      <g>
       <use style="stroke:#000000;stroke-width:0.8;" x="57.6" xlink:href="#m887751ff6e" y="156.217051"/>
      </g>
     </g>
     <g id="text_12">
      <!-- 2.0 -->
      <g transform="translate(34.696875 160.01627)scale(0.1 -0.1)">
       <use xlink:href="#DejaVuSans-32"/>
       <use x="63.623047" xlink:href="#DejaVuSans-2e"/>
       <use x="95.410156" xlink:href="#DejaVuSans-30"/>
      </g>
     </g>
    </g>
    <g id="ytick_6">
     <g id="line2d_23">
      <path clip-path="url(#p9f0e6c0924)" d="M 57.6 118.375314 
L 414.72 118.375314 
" style="fill:none;stroke:#b0b0b0;stroke-linecap:square;stroke-width:0.8;"/>
     </g>
     <g id="line2d_24">
      <g>
       <use style="stroke:#000000;stroke-width:0.8;" x="57.6" xlink:href="#m887751ff6e" y="118.375314"/>
      </g>
     </g>
     <g id="text_13">
      <!-- 2.5 -->
      <g transform="translate(34.696875 122.174533)scale(0.1 -0.1)">
       <use xlink:href="#DejaVuSans-32"/>
       <use x="63.623047" xlink:href="#DejaVuSans-2e"/>
       <use x="95.410156" xlink:href="#DejaVuSans-35"/>
      </g>
     </g>
    </g>
    <g id="ytick_7">
     <g id="line2d_25">
      <path clip-path="url(#p9f0e6c0924)" d="M 57.6 80.533577 
L 414.72 80.533577 
" style="fill:none;stroke:#b0b0b0;stroke-linecap:square;stroke-width:0.8;"/>
     </g>
     <g id="line2d_26">
      <g>
       <use style="stroke:#000000;stroke-width:0.8;" x="57.6" xlink:href="#m887751ff6e" y="80.533577"/>
      </g>
     </g>
     <g id="text_14">
      <!-- 3.0 -->
      <g transform="translate(34.696875 84.332795)scale(0.1 -0.1)">
       <defs>
        <path d="M 2597 2516 
Q 3050 2419 3304 2112 
Q 3559 1806 3559 1356 
Q 3559 666 3084 287 
Q 2609 -91 1734 -91 
Q 1441 -91 1130 -33 
Q 819 25 488 141 
L 488 750 
Q 750 597 1062 519 
Q 1375 441 1716 441 
Q 2309 441 2620 675 
Q 2931 909 2931 1356 
Q 2931 1769 2642 2001 
Q 2353 2234 1838 2234 
L 1294 2234 
L 1294 2753 
L 1863 2753 
Q 2328 2753 2575 2939 
Q 2822 3125 2822 3475 
Q 2822 3834 2567 4026 
Q 2313 4219 1838 4219 
Q 1578 4219 1281 4162 
Q 984 4106 628 3988 
L 628 4550 
Q 988 4650 1302 4700 
Q 1616 4750 1894 4750 
Q 2613 4750 3031 4423 
Q 3450 4097 3450 3541 
Q 3450 3153 3228 2886 
Q 3006 2619 2597 2516 
z
" id="DejaVuSans-33" transform="scale(0.015625)"/>
       </defs>
       <use xlink:href="#DejaVuSans-33"/>
       <use x="63.623047" xlink:href="#DejaVuSans-2e"/>
       <use x="95.410156" xlink:href="#DejaVuSans-30"/>
      </g>
     </g>
    </g>
    <g id="ytick_8">
     <g id="line2d_27">
      <path clip-path="url(#p9f0e6c0924)" d="M 57.6 42.69184 
L 414.72 42.69184 
" style="fill:none;stroke:#b0b0b0;stroke-linecap:square;stroke-width:0.8;"/>
     </g>
     <g id="line2d_28">
      <g>
       <use style="stroke:#000000;stroke-width:0.8;" x="57.6" xlink:href="#m887751ff6e" y="42.69184"/>
      </g>
     </g>
     <g id="text_15">
      <!-- 3.5 -->
      <g transform="translate(34.696875 46.491058)scale(0.1 -0.1)">
       <use xlink:href="#DejaVuSans-33"/>
       <use x="63.623047" xlink:href="#DejaVuSans-2e"/>
       <use x="95.410156" xlink:href="#DejaVuSans-35"/>
      </g>
     </g>
    </g>
    <g id="text_16">
     <!-- Voltage, $V$ -->
     <g transform="translate(28.596875 200.278)rotate(-90)scale(0.1 -0.1)">
      <defs>
       <path d="M 1831 0 
L 50 4666 
L 709 4666 
L 2188 738 
L 3669 4666 
L 4325 4666 
L 2547 0 
L 1831 0 
z
" id="DejaVuSans-56" transform="scale(0.015625)"/>
       <path d="M 1959 3097 
Q 1497 3097 1228 2736 
Q 959 2375 959 1747 
Q 959 1119 1226 758 
Q 1494 397 1959 397 
Q 2419 397 2687 759 
Q 2956 1122 2956 1747 
Q 2956 2369 2687 2733 
Q 2419 3097 1959 3097 
z
M 1959 3584 
Q 2709 3584 3137 3096 
Q 3566 2609 3566 1747 
Q 3566 888 3137 398 
Q 2709 -91 1959 -91 
Q 1206 -91 779 398 
Q 353 888 353 1747 
Q 353 2609 779 3096 
Q 1206 3584 1959 3584 
z
" id="DejaVuSans-6f" transform="scale(0.015625)"/>
       <path d="M 603 4863 
L 1178 4863 
L 1178 0 
L 603 0 
L 603 4863 
z
" id="DejaVuSans-6c" transform="scale(0.015625)"/>
       <path d="M 1172 4494 
L 1172 3500 
L 2356 3500 
L 2356 3053 
L 1172 3053 
L 1172 1153 
Q 1172 725 1289 603 
Q 1406 481 1766 481 
L 2356 481 
L 2356 0 
L 1766 0 
Q 1100 0 847 248 
Q 594 497 594 1153 
L 594 3053 
L 172 3053 
L 172 3500 
L 594 3500 
L 594 4494 
L 1172 4494 
z
" id="DejaVuSans-74" transform="scale(0.015625)"/>
       <path d="M 2194 1759 
Q 1497 1759 1228 1600 
Q 959 1441 959 1056 
Q 959 750 1161 570 
Q 1363 391 1709 391 
Q 2188 391 2477 730 
Q 2766 1069 2766 1631 
L 2766 1759 
L 2194 1759 
z
M 3341 1997 
L 3341 0 
L 2766 0 
L 2766 531 
Q 2569 213 2275 61 
Q 1981 -91 1556 -91 
Q 1019 -91 701 211 
Q 384 513 384 1019 
Q 384 1609 779 1909 
Q 1175 2209 1959 2209 
L 2766 2209 
L 2766 2266 
Q 2766 2663 2505 2880 
Q 2244 3097 1772 3097 
Q 1472 3097 1187 3025 
Q 903 2953 641 2809 
L 641 3341 
Q 956 3463 1253 3523 
Q 1550 3584 1831 3584 
Q 2591 3584 2966 3190 
Q 3341 2797 3341 1997 
z
" id="DejaVuSans-61" transform="scale(0.015625)"/>
       <path d="M 2906 1791 
Q 2906 2416 2648 2759 
Q 2391 3103 1925 3103 
Q 1463 3103 1205 2759 
Q 947 2416 947 1791 
Q 947 1169 1205 825 
Q 1463 481 1925 481 
Q 2391 481 2648 825 
Q 2906 1169 2906 1791 
z
M 3481 434 
Q 3481 -459 3084 -895 
Q 2688 -1331 1869 -1331 
Q 1566 -1331 1297 -1286 
Q 1028 -1241 775 -1147 
L 775 -588 
Q 1028 -725 1275 -790 
Q 1522 -856 1778 -856 
Q 2344 -856 2625 -561 
Q 2906 -266 2906 331 
L 2906 616 
Q 2728 306 2450 153 
Q 2172 0 1784 0 
Q 1141 0 747 490 
Q 353 981 353 1791 
Q 353 2603 747 3093 
Q 1141 3584 1784 3584 
Q 2172 3584 2450 3431 
Q 2728 3278 2906 2969 
L 2906 3500 
L 3481 3500 
L 3481 434 
z
" id="DejaVuSans-67" transform="scale(0.015625)"/>
       <path d="M 3597 1894 
L 3597 1613 
L 953 1613 
Q 991 1019 1311 708 
Q 1631 397 2203 397 
Q 2534 397 2845 478 
Q 3156 559 3463 722 
L 3463 178 
Q 3153 47 2828 -22 
Q 2503 -91 2169 -91 
Q 1331 -91 842 396 
Q 353 884 353 1716 
Q 353 2575 817 3079 
Q 1281 3584 2069 3584 
Q 2775 3584 3186 3129 
Q 3597 2675 3597 1894 
z
M 3022 2063 
Q 3016 2534 2758 2815 
Q 2500 3097 2075 3097 
Q 1594 3097 1305 2825 
Q 1016 2553 972 2059 
L 3022 2063 
z
" id="DejaVuSans-65" transform="scale(0.015625)"/>
       <path d="M 1319 0 
L 500 4666 
L 1119 4666 
L 1797 653 
L 4063 4666 
L 4750 4666 
L 2053 0 
L 1319 0 
z
" id="DejaVuSans-Oblique-56" transform="scale(0.015625)"/>
      </defs>
      <use transform="translate(0 0.015625)" xlink:href="#DejaVuSans-56"/>
      <use transform="translate(68.408203 0.015625)" xlink:href="#DejaVuSans-6f"/>
      <use transform="translate(129.589844 0.015625)" xlink:href="#DejaVuSans-6c"/>
      <use transform="translate(157.373047 0.015625)" xlink:href="#DejaVuSans-74"/>
      <use transform="translate(196.582031 0.015625)" xlink:href="#DejaVuSans-61"/>
      <use transform="translate(257.861328 0.015625)" xlink:href="#DejaVuSans-67"/>
      <use transform="translate(321.337891 0.015625)" xlink:href="#DejaVuSans-65"/>
      <use transform="translate(382.861328 0.015625)" xlink:href="#DejaVuSans-2c"/>
      <use transform="translate(414.648438 0.015625)" xlink:href="#DejaVuSans-20"/>
      <use transform="translate(446.435547 0.015625)" xlink:href="#DejaVuSans-Oblique-56"/>
     </g>
    </g>
   </g>
   <g id="line2d_29">
    <path clip-path="url(#p9f0e6c0924)" d="M 57.6 306.604567 
L 57.998127 302.686834 
L 59.192508 296.810235 
L 59.590635 292.892502 
L 60.38689 288.974769 
L 60.785017 285.057036 
L 61.183144 285.057036 
L 61.581271 281.139304 
L 61.979398 281.139304 
L 62.377525 277.221571 
L 62.775652 277.221571 
L 63.173779 271.344972 
L 68.349431 245.879709 
L 68.747559 245.879709 
L 69.145686 241.961976 
L 70.738194 234.12651 
L 71.136321 234.12651 
L 71.534448 230.208777 
L 71.932575 230.208777 
L 75.117592 214.537846 
L 75.515719 214.537846 
L 77.108227 206.702381 
L 77.506355 206.702381 
L 79.098863 198.866915 
L 79.49699 198.866915 
L 80.293244 194.949182 
L 80.691371 194.949182 
L 81.487625 191.031449 
L 81.885753 191.031449 
L 82.682007 187.113717 
L 83.080134 187.113717 
L 83.876388 183.195984 
L 84.672642 183.195984 
L 85.070769 179.278251 
L 85.468896 179.278251 
L 85.867023 177.319385 
L 86.265151 177.319385 
L 87.061405 173.401652 
L 87.459532 173.401652 
L 87.857659 171.442785 
L 88.255786 171.442785 
L 89.05204 167.525053 
L 89.848294 167.525053 
L 90.644548 163.60732 
L 91.440803 163.60732 
L 92.237057 159.689587 
L 92.635184 159.689587 
L 93.033311 157.730721 
L 93.431438 157.730721 
L 93.829565 155.771854 
L 94.227692 155.771854 
L 94.625819 153.812988 
L 95.023946 153.812988 
L 95.422074 151.854121 
L 96.616455 151.854121 
L 97.014582 147.936389 
L 97.810836 147.936389 
L 98.208963 145.977522 
L 98.60709 145.977522 
L 99.005217 144.018656 
L 99.801472 144.018656 
L 100.199599 142.059789 
L 100.597726 142.059789 
L 100.995853 140.100923 
L 101.39398 140.100923 
L 101.792107 138.142057 
L 102.986488 138.142057 
L 103.782742 134.224324 
L 104.578997 134.224324 
L 104.977124 132.265457 
L 105.773378 132.265457 
L 106.171505 130.306591 
L 106.569632 130.306591 
L 106.967759 128.347725 
L 108.16214 128.347725 
L 108.560268 126.388858 
L 108.958395 126.388858 
L 109.356522 124.429992 
L 110.152776 124.429992 
L 110.550903 122.471126 
L 111.745284 122.471126 
L 112.541538 118.553393 
L 114.930301 118.553393 
L 115.726555 114.63566 
L 117.319064 114.63566 
L 117.717191 112.676794 
L 118.911572 112.676794 
L 119.309699 110.717927 
L 120.105953 110.717927 
L 120.50408 108.759061 
L 121.300334 108.759061 
L 121.698462 106.800194 
L 123.29097 106.800194 
L 123.689097 104.841328 
L 125.281605 104.841328 
L 125.679732 102.882462 
L 127.272241 102.882462 
L 127.670368 100.923595 
L 129.262876 100.923595 
L 129.661003 98.964729 
L 130.457258 98.964729 
L 130.855385 97.005862 
L 131.253512 98.964729 
L 131.651639 97.005862 
L 132.84602 97.005862 
L 133.244147 95.046996 
L 136.031037 95.046996 
L 136.429164 93.08813 
L 138.419799 93.08813 
L 138.817926 91.129263 
L 140.808562 91.129263 
L 141.206689 89.170397 
L 142.799197 89.170397 
L 143.197324 87.21153 
L 147.576722 87.21153 
L 147.974849 85.252664 
L 151.159866 85.252664 
L 151.557993 83.293798 
L 151.95612 85.252664 
L 152.354247 83.293798 
L 154.344883 83.293798 
L 154.74301 81.334931 
L 155.141137 83.293798 
L 155.539264 81.334931 
L 159.122408 81.334931 
L 159.520535 79.376065 
L 163.103679 79.376065 
L 163.501806 77.417198 
L 167.08495 77.417198 
L 167.483077 75.458332 
L 167.881204 77.417198 
L 168.279331 77.417198 
L 168.677458 75.458332 
L 172.260602 75.458332 
L 172.658729 73.499466 
L 173.056856 75.458332 
L 173.454983 75.458332 
L 173.85311 73.499466 
L 174.251237 75.458332 
L 174.649365 75.458332 
L 175.047492 73.499466 
L 178.232508 73.499466 
L 178.630635 71.540599 
L 179.028763 73.499466 
L 179.42689 73.499466 
L 179.825017 71.540599 
L 180.223144 71.540599 
L 180.621271 73.499466 
L 181.815652 73.499466 
L 182.213779 71.540599 
L 189.778194 71.540599 
L 190.176321 69.581733 
L 190.574448 71.540599 
L 190.972575 69.581733 
L 199.731371 69.581733 
L 200.129498 67.622866 
L 200.527625 67.622866 
L 200.925753 69.581733 
L 201.32388 69.581733 
L 201.722007 67.622866 
L 202.120134 67.622866 
L 202.518261 69.581733 
L 202.916388 67.622866 
L 209.684548 67.622866 
L 210.082676 65.664 
L 210.480803 69.581733 
L 210.87893 71.540599 
L 211.277057 71.540599 
L 211.675184 75.458332 
L 212.471438 79.376065 
L 212.869565 83.293798 
L 213.267692 83.293798 
L 213.665819 87.21153 
L 214.063946 87.21153 
L 214.462074 91.129263 
L 215.258328 95.046996 
L 215.656455 95.046996 
L 216.054582 98.964729 
L 216.452709 98.964729 
L 220.43398 118.553393 
L 220.832107 118.553393 
L 222.822742 128.347725 
L 223.22087 128.347725 
L 223.618997 132.265457 
L 224.017124 132.265457 
L 224.415251 134.224324 
L 224.813378 134.224324 
L 226.804013 144.018656 
L 227.20214 144.018656 
L 228.794649 151.854121 
L 229.192776 151.854121 
L 229.98903 155.771854 
L 230.387157 155.771854 
L 230.785284 157.730721 
L 231.183411 157.730721 
L 232.377793 163.60732 
L 232.77592 163.60732 
L 233.174047 165.566186 
L 233.572174 165.566186 
L 234.368428 169.483919 
L 234.766555 169.483919 
L 235.562809 173.401652 
L 235.960936 173.401652 
L 236.359064 175.360518 
L 236.757191 175.360518 
L 237.155318 177.319385 
L 237.553445 177.319385 
L 237.951572 179.278251 
L 238.349699 179.278251 
L 238.747826 181.237117 
L 239.145953 181.237117 
L 239.54408 183.195984 
L 239.942207 183.195984 
L 240.340334 185.15485 
L 240.738462 185.15485 
L 241.534716 189.072583 
L 242.33097 189.072583 
L 242.729097 191.031449 
L 243.127224 191.031449 
L 243.525351 192.990316 
L 243.923478 192.990316 
L 244.719732 196.908049 
L 245.515987 196.908049 
L 245.914114 198.866915 
L 246.312241 198.866915 
L 246.710368 200.825781 
L 247.108495 200.825781 
L 247.506622 202.784648 
L 247.904749 202.784648 
L 248.302876 204.743514 
L 249.09913 204.743514 
L 249.497258 206.702381 
L 249.895385 206.702381 
L 250.293512 208.661247 
L 250.691639 208.661247 
L 251.089766 210.620113 
L 251.487893 210.620113 
L 251.88602 212.57898 
L 253.080401 212.57898 
L 253.876656 216.496713 
L 254.67291 216.496713 
L 255.071037 218.455579 
L 255.469164 218.455579 
L 255.867291 220.414445 
L 257.061672 220.414445 
L 257.459799 222.373312 
L 257.857926 222.373312 
L 258.256054 224.332178 
L 259.052308 224.332178 
L 259.450435 226.291045 
L 259.848562 226.291045 
L 260.246689 228.249911 
L 261.042943 228.249911 
L 261.44107 230.208777 
L 262.635452 230.208777 
L 263.033579 232.167644 
L 263.829833 232.167644 
L 264.22796 234.12651 
L 265.024214 234.12651 
L 265.422341 236.085377 
L 266.616722 236.085377 
L 267.014849 238.044243 
L 267.412977 238.044243 
L 267.811104 240.003109 
L 269.005485 240.003109 
L 269.403612 241.961976 
L 270.199866 241.961976 
L 270.597993 243.920842 
L 270.99612 243.920842 
L 271.394247 245.879709 
L 273.78301 245.879709 
L 274.181137 247.838575 
L 274.977391 247.838575 
L 275.375518 249.797441 
L 276.171773 249.797441 
L 276.5699 251.756308 
L 278.162408 251.756308 
L 278.560535 253.715174 
L 279.754916 253.715174 
L 280.153043 255.67404 
L 280.949298 255.67404 
L 281.347425 257.632907 
L 282.939933 257.632907 
L 283.33806 259.591773 
L 284.930569 259.591773 
L 285.328696 261.55064 
L 285.726823 259.591773 
L 286.12495 261.55064 
L 286.921204 261.55064 
L 287.319331 263.509506 
L 288.911839 263.509506 
L 289.309967 265.468372 
L 290.902475 265.468372 
L 291.300602 267.427239 
L 292.89311 267.427239 
L 293.291237 269.386105 
L 295.68 269.386105 
L 296.078127 271.344972 
L 297.670635 271.344972 
L 298.068763 273.303838 
L 299.661271 273.303838 
L 300.059398 275.262704 
L 300.457525 273.303838 
L 300.855652 275.262704 
L 302.050033 275.262704 
L 302.448161 277.221571 
L 306.429431 277.221571 
L 306.827559 279.180437 
L 309.614448 279.180437 
L 310.012575 281.139304 
L 312.003211 281.139304 
L 312.401338 283.09817 
L 315.984482 283.09817 
L 316.382609 285.057036 
L 320.36388 285.057036 
L 320.762007 287.015903 
L 323.947023 287.015903 
L 324.345151 288.974769 
L 324.743278 287.015903 
L 325.141405 288.974769 
L 329.520803 288.974769 
L 329.91893 290.933636 
L 333.502074 290.933636 
L 333.900201 292.892502 
L 340.270234 292.892502 
L 340.668361 294.851368 
L 347.038395 294.851368 
L 347.436522 296.810235 
L 347.834649 294.851368 
L 348.232776 296.810235 
L 354.602809 296.810235 
L 355.000936 298.769101 
L 363.361605 298.769101 
L 363.759732 300.727968 
L 364.15786 298.769101 
L 365.352241 298.769101 
L 365.750368 300.727968 
L 366.148495 300.727968 
L 366.546622 298.769101 
L 366.944749 300.727968 
L 374.907291 300.727968 
L 375.305418 302.686834 
L 375.703545 300.727968 
L 378.888562 300.727968 
L 379.286689 302.686834 
L 380.082943 302.686834 
L 380.48107 300.727968 
L 380.879197 302.686834 
L 391.628629 302.686834 
L 392.026756 304.6457 
L 392.424883 302.686834 
L 393.221137 302.686834 
L 393.619264 304.6457 
L 414.321873 304.6457 
L 414.72 306.604567 
L 414.72 306.604567 
" style="fill:none;stroke:#0000ff;stroke-linecap:square;"/>
   </g>
   <g id="line2d_30">
    <path clip-path="url(#p9f0e6c0924)" d="M 414.72 307.584 
L 414.72 41.472 
" style="fill:none;stroke:#000000;stroke-dasharray:1,1.65;stroke-dashoffset:0;"/>
   </g>
   <g id="patch_3">
    <path d="M 57.6 307.584 
L 57.6 41.472 
" style="fill:none;stroke:#000000;stroke-linecap:square;stroke-linejoin:miter;stroke-width:0.8;"/>
   </g>
   <g id="patch_4">
    <path d="M 414.72 307.584 
L 414.72 41.472 
" style="fill:none;stroke:#000000;stroke-linecap:square;stroke-linejoin:miter;stroke-width:0.8;"/>
   </g>
   <g id="patch_5">
    <path d="M 57.6 307.584 
L 414.72 307.584 
" style="fill:none;stroke:#000000;stroke-linecap:square;stroke-linejoin:miter;stroke-width:0.8;"/>
   </g>
   <g id="patch_6">
    <path d="M 57.6 41.472 
L 414.72 41.472 
" style="fill:none;stroke:#000000;stroke-linecap:square;stroke-linejoin:miter;stroke-width:0.8;"/>
   </g>
   <g id="text_17">
    <!-- charging time: 0.01100 с -->
    <g transform="translate(162741.992727 103.505737)scale(0.1 -0.1)">
     <defs>
      <path d="M 3122 3366 
L 3122 2828 
Q 2878 2963 2633 3030 
Q 2388 3097 2138 3097 
Q 1578 3097 1268 2742 
Q 959 2388 959 1747 
Q 959 1106 1268 751 
Q 1578 397 2138 397 
Q 2388 397 2633 464 
Q 2878 531 3122 666 
L 3122 134 
Q 2881 22 2623 -34 
Q 2366 -91 2075 -91 
Q 1284 -91 818 406 
Q 353 903 353 1747 
Q 353 2603 823 3093 
Q 1294 3584 2113 3584 
Q 2378 3584 2631 3529 
Q 2884 3475 3122 3366 
z
" id="DejaVuSans-63" transform="scale(0.015625)"/>
      <path d="M 3513 2113 
L 3513 0 
L 2938 0 
L 2938 2094 
Q 2938 2591 2744 2837 
Q 2550 3084 2163 3084 
Q 1697 3084 1428 2787 
Q 1159 2491 1159 1978 
L 1159 0 
L 581 0 
L 581 4863 
L 1159 4863 
L 1159 2956 
Q 1366 3272 1645 3428 
Q 1925 3584 2291 3584 
Q 2894 3584 3203 3211 
Q 3513 2838 3513 2113 
z
" id="DejaVuSans-68" transform="scale(0.015625)"/>
      <path d="M 2631 2963 
Q 2534 3019 2420 3045 
Q 2306 3072 2169 3072 
Q 1681 3072 1420 2755 
Q 1159 2438 1159 1844 
L 1159 0 
L 581 0 
L 581 3500 
L 1159 3500 
L 1159 2956 
Q 1341 3275 1631 3429 
Q 1922 3584 2338 3584 
Q 2397 3584 2469 3576 
Q 2541 3569 2628 3553 
L 2631 2963 
z
" id="DejaVuSans-72" transform="scale(0.015625)"/>
      <path d="M 603 3500 
L 1178 3500 
L 1178 0 
L 603 0 
L 603 3500 
z
M 603 4863 
L 1178 4863 
L 1178 4134 
L 603 4134 
L 603 4863 
z
" id="DejaVuSans-69" transform="scale(0.015625)"/>
      <path d="M 3513 2113 
L 3513 0 
L 2938 0 
L 2938 2094 
Q 2938 2591 2744 2837 
Q 2550 3084 2163 3084 
Q 1697 3084 1428 2787 
Q 1159 2491 1159 1978 
L 1159 0 
L 581 0 
L 581 3500 
L 1159 3500 
L 1159 2956 
Q 1366 3272 1645 3428 
Q 1925 3584 2291 3584 
Q 2894 3584 3203 3211 
Q 3513 2838 3513 2113 
z
" id="DejaVuSans-6e" transform="scale(0.015625)"/>
      <path d="M 3328 2828 
Q 3544 3216 3844 3400 
Q 4144 3584 4550 3584 
Q 5097 3584 5394 3201 
Q 5691 2819 5691 2113 
L 5691 0 
L 5113 0 
L 5113 2094 
Q 5113 2597 4934 2840 
Q 4756 3084 4391 3084 
Q 3944 3084 3684 2787 
Q 3425 2491 3425 1978 
L 3425 0 
L 2847 0 
L 2847 2094 
Q 2847 2600 2669 2842 
Q 2491 3084 2119 3084 
Q 1678 3084 1418 2786 
Q 1159 2488 1159 1978 
L 1159 0 
L 581 0 
L 581 3500 
L 1159 3500 
L 1159 2956 
Q 1356 3278 1631 3431 
Q 1906 3584 2284 3584 
Q 2666 3584 2933 3390 
Q 3200 3197 3328 2828 
z
" id="DejaVuSans-6d" transform="scale(0.015625)"/>
      <path d="M 750 794 
L 1409 794 
L 1409 0 
L 750 0 
L 750 794 
z
M 750 3309 
L 1409 3309 
L 1409 2516 
L 750 2516 
L 750 3309 
z
" id="DejaVuSans-3a" transform="scale(0.015625)"/>
      <path d="M 3122 3366 
L 3122 2828 
Q 2878 2963 2633 3030 
Q 2388 3097 2138 3097 
Q 1578 3097 1268 2742 
Q 959 2388 959 1747 
Q 959 1106 1268 751 
Q 1578 397 2138 397 
Q 2388 397 2633 464 
Q 2878 531 3122 666 
L 3122 134 
Q 2881 22 2623 -34 
Q 2366 -91 2075 -91 
Q 1284 -91 818 406 
Q 353 903 353 1747 
Q 353 2603 823 3093 
Q 1294 3584 2113 3584 
Q 2378 3584 2631 3529 
Q 2884 3475 3122 3366 
z
" id="DejaVuSans-441" transform="scale(0.015625)"/>
     </defs>
     <use xlink:href="#DejaVuSans-63"/>
     <use x="54.980469" xlink:href="#DejaVuSans-68"/>
     <use x="118.359375" xlink:href="#DejaVuSans-61"/>
     <use x="179.638672" xlink:href="#DejaVuSans-72"/>
     <use x="219.001953" xlink:href="#DejaVuSans-67"/>
     <use x="282.478516" xlink:href="#DejaVuSans-69"/>
     <use x="310.261719" xlink:href="#DejaVuSans-6e"/>
     <use x="373.640625" xlink:href="#DejaVuSans-67"/>
     <use x="437.117188" xlink:href="#DejaVuSans-20"/>
     <use x="468.904297" xlink:href="#DejaVuSans-74"/>
     <use x="508.113281" xlink:href="#DejaVuSans-69"/>
     <use x="535.896484" xlink:href="#DejaVuSans-6d"/>
     <use x="633.308594" xlink:href="#DejaVuSans-65"/>
     <use x="694.832031" xlink:href="#DejaVuSans-3a"/>
     <use x="728.523438" xlink:href="#DejaVuSans-20"/>
     <use x="760.310547" xlink:href="#DejaVuSans-30"/>
     <use x="823.933594" xlink:href="#DejaVuSans-2e"/>
     <use x="855.720703" xlink:href="#DejaVuSans-30"/>
     <use x="919.34375" xlink:href="#DejaVuSans-31"/>
     <use x="982.966797" xlink:href="#DejaVuSans-31"/>
     <use x="1046.589844" xlink:href="#DejaVuSans-30"/>
     <use x="1110.212891" xlink:href="#DejaVuSans-30"/>
     <use x="1173.835938" xlink:href="#DejaVuSans-20"/>
     <use x="1205.623047" xlink:href="#DejaVuSans-441"/>
    </g>
   </g>
   <g id="text_18">
    <!-- discharge time:  0.00000 с -->
    <g transform="translate(162741.992727 111.074085)scale(0.1 -0.1)">
     <defs>
      <path d="M 2906 2969 
L 2906 4863 
L 3481 4863 
L 3481 0 
L 2906 0 
L 2906 525 
Q 2725 213 2448 61 
Q 2172 -91 1784 -91 
Q 1150 -91 751 415 
Q 353 922 353 1747 
Q 353 2572 751 3078 
Q 1150 3584 1784 3584 
Q 2172 3584 2448 3432 
Q 2725 3281 2906 2969 
z
M 947 1747 
Q 947 1113 1208 752 
Q 1469 391 1925 391 
Q 2381 391 2643 752 
Q 2906 1113 2906 1747 
Q 2906 2381 2643 2742 
Q 2381 3103 1925 3103 
Q 1469 3103 1208 2742 
Q 947 2381 947 1747 
z
" id="DejaVuSans-64" transform="scale(0.015625)"/>
      <path d="M 2834 3397 
L 2834 2853 
Q 2591 2978 2328 3040 
Q 2066 3103 1784 3103 
Q 1356 3103 1142 2972 
Q 928 2841 928 2578 
Q 928 2378 1081 2264 
Q 1234 2150 1697 2047 
L 1894 2003 
Q 2506 1872 2764 1633 
Q 3022 1394 3022 966 
Q 3022 478 2636 193 
Q 2250 -91 1575 -91 
Q 1294 -91 989 -36 
Q 684 19 347 128 
L 347 722 
Q 666 556 975 473 
Q 1284 391 1588 391 
Q 1994 391 2212 530 
Q 2431 669 2431 922 
Q 2431 1156 2273 1281 
Q 2116 1406 1581 1522 
L 1381 1569 
Q 847 1681 609 1914 
Q 372 2147 372 2553 
Q 372 3047 722 3315 
Q 1072 3584 1716 3584 
Q 2034 3584 2315 3537 
Q 2597 3491 2834 3397 
z
" id="DejaVuSans-73" transform="scale(0.015625)"/>
     </defs>
     <use xlink:href="#DejaVuSans-64"/>
     <use x="63.476562" xlink:href="#DejaVuSans-69"/>
     <use x="91.259766" xlink:href="#DejaVuSans-73"/>
     <use x="143.359375" xlink:href="#DejaVuSans-63"/>
     <use x="198.339844" xlink:href="#DejaVuSans-68"/>
     <use x="261.71875" xlink:href="#DejaVuSans-61"/>
     <use x="322.998047" xlink:href="#DejaVuSans-72"/>
     <use x="362.361328" xlink:href="#DejaVuSans-67"/>
     <use x="425.837891" xlink:href="#DejaVuSans-65"/>
     <use x="487.361328" xlink:href="#DejaVuSans-20"/>
     <use x="519.148438" xlink:href="#DejaVuSans-74"/>
     <use x="558.357422" xlink:href="#DejaVuSans-69"/>
     <use x="586.140625" xlink:href="#DejaVuSans-6d"/>
     <use x="683.552734" xlink:href="#DejaVuSans-65"/>
     <use x="745.076172" xlink:href="#DejaVuSans-3a"/>
     <use x="778.767578" xlink:href="#DejaVuSans-20"/>
     <use x="810.554688" xlink:href="#DejaVuSans-20"/>
     <use x="842.341797" xlink:href="#DejaVuSans-30"/>
     <use x="905.964844" xlink:href="#DejaVuSans-2e"/>
     <use x="937.751953" xlink:href="#DejaVuSans-30"/>
     <use x="1001.375" xlink:href="#DejaVuSans-30"/>
     <use x="1064.998047" xlink:href="#DejaVuSans-30"/>
     <use x="1128.621094" xlink:href="#DejaVuSans-30"/>
     <use x="1192.244141" xlink:href="#DejaVuSans-30"/>
     <use x="1255.867188" xlink:href="#DejaVuSans-20"/>
     <use x="1287.654297" xlink:href="#DejaVuSans-441"/>
    </g>
   </g>
   <g id="text_19">
    <!-- Charging and discharging process in RC circuit -->
    <g transform="translate(96.482812 35.472)scale(0.12 -0.12)">
     <defs>
      <path d="M 4122 4306 
L 4122 3641 
Q 3803 3938 3442 4084 
Q 3081 4231 2675 4231 
Q 1875 4231 1450 3742 
Q 1025 3253 1025 2328 
Q 1025 1406 1450 917 
Q 1875 428 2675 428 
Q 3081 428 3442 575 
Q 3803 722 4122 1019 
L 4122 359 
Q 3791 134 3420 21 
Q 3050 -91 2638 -91 
Q 1578 -91 968 557 
Q 359 1206 359 2328 
Q 359 3453 968 4101 
Q 1578 4750 2638 4750 
Q 3056 4750 3426 4639 
Q 3797 4528 4122 4306 
z
" id="DejaVuSans-43" transform="scale(0.015625)"/>
      <path d="M 1159 525 
L 1159 -1331 
L 581 -1331 
L 581 3500 
L 1159 3500 
L 1159 2969 
Q 1341 3281 1617 3432 
Q 1894 3584 2278 3584 
Q 2916 3584 3314 3078 
Q 3713 2572 3713 1747 
Q 3713 922 3314 415 
Q 2916 -91 2278 -91 
Q 1894 -91 1617 61 
Q 1341 213 1159 525 
z
M 3116 1747 
Q 3116 2381 2855 2742 
Q 2594 3103 2138 3103 
Q 1681 3103 1420 2742 
Q 1159 2381 1159 1747 
Q 1159 1113 1420 752 
Q 1681 391 2138 391 
Q 2594 391 2855 752 
Q 3116 1113 3116 1747 
z
" id="DejaVuSans-70" transform="scale(0.015625)"/>
      <path d="M 2841 2188 
Q 3044 2119 3236 1894 
Q 3428 1669 3622 1275 
L 4263 0 
L 3584 0 
L 2988 1197 
Q 2756 1666 2539 1819 
Q 2322 1972 1947 1972 
L 1259 1972 
L 1259 0 
L 628 0 
L 628 4666 
L 2053 4666 
Q 2853 4666 3247 4331 
Q 3641 3997 3641 3322 
Q 3641 2881 3436 2590 
Q 3231 2300 2841 2188 
z
M 1259 4147 
L 1259 2491 
L 2053 2491 
Q 2509 2491 2742 2702 
Q 2975 2913 2975 3322 
Q 2975 3731 2742 3939 
Q 2509 4147 2053 4147 
L 1259 4147 
z
" id="DejaVuSans-52" transform="scale(0.015625)"/>
      <path d="M 544 1381 
L 544 3500 
L 1119 3500 
L 1119 1403 
Q 1119 906 1312 657 
Q 1506 409 1894 409 
Q 2359 409 2629 706 
Q 2900 1003 2900 1516 
L 2900 3500 
L 3475 3500 
L 3475 0 
L 2900 0 
L 2900 538 
Q 2691 219 2414 64 
Q 2138 -91 1772 -91 
Q 1169 -91 856 284 
Q 544 659 544 1381 
z
M 1991 3584 
L 1991 3584 
z
" id="DejaVuSans-75" transform="scale(0.015625)"/>
     </defs>
     <use xlink:href="#DejaVuSans-43"/>
     <use x="69.824219" xlink:href="#DejaVuSans-68"/>
     <use x="133.203125" xlink:href="#DejaVuSans-61"/>
     <use x="194.482422" xlink:href="#DejaVuSans-72"/>
     <use x="233.845703" xlink:href="#DejaVuSans-67"/>
     <use x="297.322266" xlink:href="#DejaVuSans-69"/>
     <use x="325.105469" xlink:href="#DejaVuSans-6e"/>
     <use x="388.484375" xlink:href="#DejaVuSans-67"/>
     <use x="451.960938" xlink:href="#DejaVuSans-20"/>
     <use x="483.748047" xlink:href="#DejaVuSans-61"/>
     <use x="545.027344" xlink:href="#DejaVuSans-6e"/>
     <use x="608.40625" xlink:href="#DejaVuSans-64"/>
     <use x="671.882812" xlink:href="#DejaVuSans-20"/>
     <use x="703.669922" xlink:href="#DejaVuSans-64"/>
     <use x="767.146484" xlink:href="#DejaVuSans-69"/>
     <use x="794.929688" xlink:href="#DejaVuSans-73"/>
     <use x="847.029297" xlink:href="#DejaVuSans-63"/>
     <use x="902.009766" xlink:href="#DejaVuSans-68"/>
     <use x="965.388672" xlink:href="#DejaVuSans-61"/>
     <use x="1026.667969" xlink:href="#DejaVuSans-72"/>
     <use x="1066.03125" xlink:href="#DejaVuSans-67"/>
     <use x="1129.507812" xlink:href="#DejaVuSans-69"/>
     <use x="1157.291016" xlink:href="#DejaVuSans-6e"/>
     <use x="1220.669922" xlink:href="#DejaVuSans-67"/>
     <use x="1284.146484" xlink:href="#DejaVuSans-20"/>
     <use x="1315.933594" xlink:href="#DejaVuSans-70"/>
     <use x="1379.410156" xlink:href="#DejaVuSans-72"/>
     <use x="1418.273438" xlink:href="#DejaVuSans-6f"/>
     <use x="1479.455078" xlink:href="#DejaVuSans-63"/>
     <use x="1534.435547" xlink:href="#DejaVuSans-65"/>
     <use x="1595.958984" xlink:href="#DejaVuSans-73"/>
     <use x="1648.058594" xlink:href="#DejaVuSans-73"/>
     <use x="1700.158203" xlink:href="#DejaVuSans-20"/>
     <use x="1731.945312" xlink:href="#DejaVuSans-69"/>
     <use x="1759.728516" xlink:href="#DejaVuSans-6e"/>
     <use x="1823.107422" xlink:href="#DejaVuSans-20"/>
     <use x="1854.894531" xlink:href="#DejaVuSans-52"/>
     <use x="1919.376953" xlink:href="#DejaVuSans-43"/>
     <use x="1989.201172" xlink:href="#DejaVuSans-20"/>
     <use x="2020.988281" xlink:href="#DejaVuSans-63"/>
     <use x="2075.96875" xlink:href="#DejaVuSans-69"/>
     <use x="2103.751953" xlink:href="#DejaVuSans-72"/>
     <use x="2142.615234" xlink:href="#DejaVuSans-63"/>
     <use x="2197.595703" xlink:href="#DejaVuSans-75"/>
     <use x="2260.974609" xlink:href="#DejaVuSans-69"/>
     <use x="2288.757812" xlink:href="#DejaVuSans-74"/>
    </g>
   </g>
   <g id="legend_1">
    <g id="patch_7">
     <path d="M 291.204375 78.82825 
L 407.72 78.82825 
Q 409.72 78.82825 409.72 76.82825 
L 409.72 48.472 
Q 409.72 46.472 407.72 46.472 
L 291.204375 46.472 
Q 289.204375 46.472 289.204375 48.472 
L 289.204375 76.82825 
Q 289.204375 78.82825 291.204375 78.82825 
z
" style="fill:#ffffff;opacity:0.8;stroke:#cccccc;stroke-linejoin:miter;"/>
    </g>
    <g id="line2d_31">
     <path d="M 293.204375 54.570437 
L 313.204375 54.570437 
" style="fill:none;stroke:#0000ff;stroke-linecap:square;"/>
    </g>
    <g id="line2d_32"/>
    <g id="text_20">
     <!-- V(t) -->
     <g transform="translate(321.204375 58.070437)scale(0.1 -0.1)">
      <defs>
       <path d="M 1984 4856 
Q 1566 4138 1362 3434 
Q 1159 2731 1159 2009 
Q 1159 1288 1364 580 
Q 1569 -128 1984 -844 
L 1484 -844 
Q 1016 -109 783 600 
Q 550 1309 550 2009 
Q 550 2706 781 3412 
Q 1013 4119 1484 4856 
L 1984 4856 
z
" id="DejaVuSans-28" transform="scale(0.015625)"/>
       <path d="M 513 4856 
L 1013 4856 
Q 1481 4119 1714 3412 
Q 1947 2706 1947 2009 
Q 1947 1309 1714 600 
Q 1481 -109 1013 -844 
L 513 -844 
Q 928 -128 1133 580 
Q 1338 1288 1338 2009 
Q 1338 2731 1133 3434 
Q 928 4138 513 4856 
z
" id="DejaVuSans-29" transform="scale(0.015625)"/>
      </defs>
      <use xlink:href="#DejaVuSans-56"/>
      <use x="68.408203" xlink:href="#DejaVuSans-28"/>
      <use x="107.421875" xlink:href="#DejaVuSans-74"/>
      <use x="146.630859" xlink:href="#DejaVuSans-29"/>
     </g>
    </g>
    <g id="line2d_33">
     <path d="M 293.204375 69.248562 
L 313.204375 69.248562 
" style="fill:none;stroke:#000000;stroke-dasharray:1,1.65;stroke-dashoffset:0;"/>
    </g>
    <g id="line2d_34"/>
    <g id="text_21">
     <!-- start discharging -->
     <g transform="translate(321.204375 72.748562)scale(0.1 -0.1)">
      <use xlink:href="#DejaVuSans-73"/>
      <use x="52.099609" xlink:href="#DejaVuSans-74"/>
      <use x="91.308594" xlink:href="#DejaVuSans-61"/>
      <use x="152.587891" xlink:href="#DejaVuSans-72"/>
      <use x="193.701172" xlink:href="#DejaVuSans-74"/>
      <use x="232.910156" xlink:href="#DejaVuSans-20"/>
      <use x="264.697266" xlink:href="#DejaVuSans-64"/>
      <use x="328.173828" xlink:href="#DejaVuSans-69"/>
      <use x="355.957031" xlink:href="#DejaVuSans-73"/>
      <use x="408.056641" xlink:href="#DejaVuSans-63"/>
      <use x="463.037109" xlink:href="#DejaVuSans-68"/>
      <use x="526.416016" xlink:href="#DejaVuSans-61"/>
      <use x="587.695312" xlink:href="#DejaVuSans-72"/>
      <use x="627.058594" xlink:href="#DejaVuSans-67"/>
      <use x="690.535156" xlink:href="#DejaVuSans-69"/>
      <use x="718.318359" xlink:href="#DejaVuSans-6e"/>
      <use x="781.697266" xlink:href="#DejaVuSans-67"/>
     </g>
    </g>
   </g>
  </g>
 </g>
 <defs>
  <clipPath id="p9f0e6c0924">
   <rect height="266.112" width="357.12" x="57.6" y="41.472"/>
  </clipPath>
 </defs>
</svg>
